<?xml version="1.0" standalone="no"?>
<!DOCTYPE svg PUBLIC "-//W3C//DTD SVG 1.1//EN" "http://www.w3.org/Graphics/SVG/1.1/DTD/svg11.dtd" >
<svg xmlns="http://www.w3.org/2000/svg">
<metadata>Generated by IcoMoon</metadata>
<defs>
<font id="icomoon" horiz-adv-x="1024">
<font-face units-per-em="1024" ascent="960" descent="-64" />
<missing-glyph horiz-adv-x="1024" />
<glyph unicode="&#x20;" horiz-adv-x="512" d="" />
<glyph unicode="&#xe900;" glyph-name="bmp" d="M95.394 785.381v-680.421c0 0 0 0 0 0 0-94.856 76.82-171.771 171.64-171.924h489.649c94.951 0 171.924 76.973 171.924 171.924v0 557.272l-294.804 294.804h-366.754c-94.741-0.153-171.501-76.914-171.655-171.64v-0.015zM158.989 104.96v680.421c0 59.53 48.259 107.789 107.789 107.789v0h340.615v-167.074c0.458-49.508 40.698-89.465 90.27-89.465 0.001 0 0.003 0 0.004 0h167.343v-530.863c0-59.53-48.259-107.789-107.789-107.789v0h-490.173c-59.53 0-107.789 48.259-107.789 107.789v0zM239.832 304.909l-2.695-10.779h-36.648v207.764h40.421v-75.183c8.267 7.366 17.659 13.745 27.826 18.801l0.738 0.332c6.781 3.066 14.702 4.852 23.040 4.852 0.142 0 0.284-0.001 0.426-0.002h-0.022c0.643 0.031 1.397 0.048 2.155 0.048 16.221 0 30.561-8.052 39.242-20.377l0.101-0.152c10.018-15.314 15.979-34.070 15.979-54.218 0-1.403-0.029-2.799-0.086-4.187l0.007 0.199c0.059-1.225 0.093-2.661 0.093-4.105 0-20.852-7.028-40.062-18.844-55.391l0.157 0.212c-10.696-13.825-27.29-22.64-45.943-22.64-0.238 0-0.475 0.001-0.712 0.004h0.036c-16.055 0.867-30.69 6.29-42.82 14.987l0.243-0.166zM239.832 408.926v-84.615c7.255-2.877 15.652-4.638 24.434-4.849l0.088-0.002c26.947 0 42.038 17.246 42.038 51.469s-11.587 48.775-35.032 48.775c-11.48-0.877-21.899-4.783-30.648-10.91l0.198 0.131zM628.143 294.131h-39.613v76.531c0.023 1.113 0.036 2.425 0.036 3.741 0 8.179-0.503 16.24-1.478 24.155l0.095-0.948c-0.045 6.498-3.192 12.252-8.032 15.861l-0.053 0.038c-4.739 2.58-10.379 4.097-16.372 4.097-0.687 0-1.369-0.020-2.045-0.059l0.094 0.004c-11.156-1.436-21.138-5.566-29.553-11.713l0.18 0.125v-111.562h-40.421v76.261c0.006 0.554 0.009 1.209 0.009 1.865 0 8.843-0.591 17.549-1.735 26.079l0.109-0.997c-0.411 6.304-3.579 11.794-8.299 15.321l-0.054 0.039c-4.713 2.574-10.323 4.087-16.287 4.087-0.622 0-1.24-0.016-1.853-0.049l0.086 0.004c-11.088-1.26-21.017-5.419-29.247-11.693l0.144 0.105v-111.562h-40.421v152.792h40.421v-21.288c8.851 7.704 18.735 14.668 29.297 20.565l0.884 0.454c6.232 2.727 13.494 4.313 21.126 4.313 0.152 0 0.303-0.001 0.455-0.002h-0.023c0.058 0 0.128 0 0.197 0 19.293 0 35.734-12.214 42.011-29.332l0.1-0.311c9.223 8.575 19.561 16.166 30.717 22.482l0.812 0.423c6.923 3.865 15.181 6.156 23.971 6.198h0.012c30.451 0 45.811-18.594 45.811-56.32zM722.728 304.909v-65.482h-40.421v207.225h40.421v-20.48c8.34 7.586 17.822 14.142 28.107 19.339l0.726 0.333c6.781 3.066 14.702 4.852 23.040 4.852 0.142 0 0.284-0.001 0.426-0.002h-0.022c0.602 0.027 1.309 0.042 2.019 0.042 16.26 0 30.641-8.045 39.379-20.372l0.101-0.15c9.235-14.709 14.714-32.589 14.714-51.749 0-1.987-0.059-3.961-0.175-5.919l0.013 0.27c0.149-1.923 0.234-4.164 0.234-6.425 0-20.040-6.669-38.522-17.91-53.349l0.16 0.22c-10.649-13.668-27.111-22.375-45.607-22.375-0.356 0-0.711 0.003-1.065 0.010l0.053-0.001c-16.116 1.078-30.854 6.153-43.484 14.233l0.369-0.221zM722.728 408.926v-84.076c7.051-2.901 15.235-4.585 23.814-4.585 0.249 0 0.498 0.001 0.746 0.004h-0.038q42.038 0 42.038 50.931c0 32.337-11.587 48.505-35.032 48.505-11.48-0.877-21.899-4.783-30.648-10.91l0.198 0.131z" />
<glyph unicode="&#xe901;" glyph-name="csv" d="M95.394 785.381v-680.421c0 0 0 0 0 0 0-94.856 76.82-171.771 171.64-171.924h489.649c94.951 0 171.924 76.973 171.924 171.924v0 557.272l-294.804 294.804h-366.754c-94.741-0.153-171.501-76.914-171.655-171.64v-0.015zM158.989 104.96v680.421c0 59.53 48.259 107.789 107.789 107.789v0h340.615v-167.074c0.458-49.508 40.698-89.465 90.27-89.465 0.001 0 0.003 0 0.004 0h167.343v-530.863c0-59.53-48.259-107.789-107.789-107.789v0h-490.173c-59.53 0-107.789 48.259-107.789 107.789v0zM401.516 301.676c-13.524-6.729-29.372-10.935-46.133-11.581l-0.217-0.007c-1.573-0.1-3.411-0.157-5.262-0.157-21.788 0-41.729 7.908-57.11 21.010l0.124-0.103c-14.519 13.95-23.539 33.529-23.539 55.216 0 1.336 0.034 2.665 0.102 3.984l-0.008-0.185c-0.085 1.367-0.133 2.964-0.133 4.573 0 21.555 8.697 41.079 22.774 55.254l-0.004-0.004c14.977 13.122 34.725 21.126 56.342 21.126 1.509 0 3.009-0.039 4.498-0.116l-0.209 0.009c0.015 0 0.034 0 0.052 0 17.405 0 33.808-4.286 48.213-11.86l-0.568 0.272v-37.187h-1.617c-11.406 11.294-26.903 18.476-44.071 19.129l-0.123 0.004c-0.515 0.025-1.119 0.039-1.726 0.039-11.831 0-22.417-5.332-29.486-13.724l-0.048-0.058c-6.971-9.657-11.15-21.731-11.15-34.781 0-1.226 0.037-2.443 0.11-3.65l-0.008 0.166c-0.049-0.883-0.076-1.917-0.076-2.958 0-12.777 4.175-24.579 11.235-34.116l-0.11 0.156c7.334-8.163 17.924-13.274 29.708-13.274 0.83 0 1.654 0.025 2.471 0.075l-0.112-0.005c17.129 0.931 32.353 8.393 43.362 19.916l0.023 0.025h2.156zM439.242 301.676v37.187h1.617c15.313-13.354 35.346-21.645 57.304-22.095l0.094-0.002c20.48 0 30.451 5.659 30.451 16.707 0.006 0.144 0.009 0.313 0.009 0.483 0 3.916-1.777 7.417-4.57 9.741l-0.021 0.017c-4.974 2.875-10.764 5.034-16.918 6.149l-0.329 0.049-24.253 5.12c-9.38 1.809-17.707 5.284-25.049 10.13l0.257-0.16c-5.699 3.816-10.266 8.901-13.369 14.869l-0.105 0.221c-2.725 5.984-4.313 12.977-4.313 20.341 0 0.143 0.001 0.287 0.002 0.43v-0.022c-0.015 0.425-0.024 0.925-0.024 1.427 0 14.295 7.090 26.935 17.945 34.593l0.133 0.089c13.458 8.759 29.925 13.968 47.608 13.968 2.212 0 4.406-0.082 6.577-0.242l-0.29 0.017c0.629 0.011 1.371 0.017 2.114 0.017 18.007 0 35.157-3.672 50.741-10.308l-0.847 0.321v-35.571c-14.058 10.974-31.736 17.922-50.992 18.855l-0.208 0.008c-0.466 0.018-1.014 0.029-1.564 0.029-7.215 0-14.008-1.806-19.951-4.99l0.227 0.111c-4.795-2.017-8.19-6.493-8.62-11.807l-0.003-0.050c-0.020-0.275-0.032-0.597-0.032-0.92 0-4.366 2.119-8.237 5.385-10.641l0.036-0.026c5.124-3.024 11.098-5.279 17.458-6.419l0.327-0.049c10.509-1.886 21.288-4.312 31.798-7.006 9.846-2.339 18.287-7.365 24.768-14.257l0.024-0.026c5.717-6.887 9.186-15.818 9.186-25.56 0-0.488-0.009-0.974-0.026-1.458l0.002 0.070c0.003-0.204 0.005-0.446 0.005-0.687 0-15.27-7.744-28.731-19.52-36.67l-0.157-0.1c-13.772-8.723-30.541-13.901-48.518-13.901-1.891 0-3.769 0.057-5.632 0.17l0.256-0.012c-1.087-0.030-2.366-0.048-3.649-0.048-20.219 0-39.437 4.282-56.798 11.989l0.893-0.354zM759.916 446.653l-62.248-152.522h-38.265l-61.979 152.522h43.655l39.074-106.442 38.265 105.634z" />
<glyph unicode="&#xe902;" glyph-name="docx" d="M95.394 785.381v-680.421c0 0 0 0 0 0 0-94.856 76.82-171.771 171.64-171.924h489.649c94.951 0 171.924 76.973 171.924 171.924v0 557.272l-294.804 294.804h-366.754c-94.741-0.153-171.501-76.914-171.655-171.64v-0.015zM158.989 104.96v680.421c0 59.53 48.259 107.789 107.789 107.789v0h340.615v-167.074c0.458-49.508 40.698-89.465 90.27-89.465 0.001 0 0.003 0 0.004 0h167.343v-530.863c0-59.53-48.259-107.789-107.789-107.789v0h-490.173c-59.53 0-107.789 48.259-107.789 107.789v0zM393.701 221.103q2.156-14.552 2.425-25.061h1.617c0 6.737 1.617 14.821 3.234 24.522s3.234 17.516 4.851 24.253l65.213 281.869h84.884l67.638-277.827c3.511-14.4 6.549-32.104 8.463-50.144l0.16-1.864c1.428 19.007 3.913 36.338 7.465 53.276l-0.459-2.615 53.895 279.444h77.069l-95.124-404.211h-88.657l-64.674 267.318c-1.886 7.815-3.773 17.785-6.198 30.181s-3.503 21.558-3.503 27.756v0c0-6.467-2.156-16.168-4.312-29.103s-3.773-22.636-5.12-28.834l-60.632-266.779h-91.621l-95.663 404.211h78.147l59.015-282.678c1.152-7.094 1.836-15.304 1.886-23.663v-0.050z" />
<glyph unicode="&#xe903;" glyph-name="dwg" d="M95.394 785.381v-680.421c0 0 0 0 0 0 0-94.856 76.82-171.771 171.64-171.924h489.649c94.951 0 171.924 76.973 171.924 171.924v0 557.272l-294.804 294.804h-366.754c-94.741-0.153-171.501-76.914-171.655-171.64v-0.015zM158.989 104.96v680.421c0 59.53 48.259 107.789 107.789 107.789v0h340.615v-167.074c0.458-49.508 40.698-89.465 90.27-89.465 0.001 0 0.003 0 0.004 0h167.343v-530.863c0-59.53-48.259-107.789-107.789-107.789v0h-490.173c-59.53 0-107.789 48.259-107.789 107.789v0zM363.789 293.592h-40.421v19.672c-8.592-7.744-18.334-14.475-28.879-19.857l-0.763-0.353c-6.236-2.559-13.475-4.044-21.061-4.044-0.175 0-0.349 0.001-0.524 0.002h0.027c-0.394-0.011-0.857-0.018-1.322-0.018-16.721 0-31.487 8.368-40.34 21.144l-0.107 0.162c-9.454 14.657-15.073 32.562-15.073 51.779 0 2.452 0.091 4.882 0.271 7.287l-0.019-0.321c-0.064 1.259-0.1 2.733-0.1 4.216 0 20.77 7.142 39.872 19.105 54.983l-0.141-0.185c10.696 13.825 27.29 22.64 45.943 22.64 0.238 0 0.475-0.001 0.712-0.004h-0.036c0.463 0.012 1.009 0.018 1.556 0.018 5.962 0 11.738-0.793 17.229-2.28l-0.46 0.106c9.417-3.062 17.528-6.712 25.151-11.114l-0.628 0.335v64.135h40.421zM323.368 333.204v82.459c-7.154 3.585-15.565 5.755-24.465 5.928l-0.057 0.001c-26.947 0-42.038-17.246-42.038-51.469-0.121-1.478-0.19-3.2-0.19-4.938 0-11.985 3.274-23.206 8.976-32.817l-0.163 0.298c6.069-7.14 15.057-11.64 25.097-11.64 0.651 0 1.298 0.019 1.939 0.056l-0.089-0.004c11.866 0.723 22.569 5.18 31.081 12.2l-0.092-0.074zM635.688 446.653l-46.349-152.522h-35.301l-35.301 107.789-35.032-107.789h-35.571l-46.349 152.522h42.577l26.947-100.244 32.067 100.244h35.571l31.259-99.975 25.6 99.975zM811.116 311.916c0.166-1.857 0.261-4.017 0.261-6.199 0-19.113-7.262-36.53-19.178-49.642l0.054 0.061c-14.563-11.447-33.162-18.359-53.375-18.359-2.554 0-5.083 0.11-7.581 0.327l0.325-0.023c-19.12 0.044-37.714 2.201-55.589 6.251l1.694-0.323v32.606h1.886c13.378-5.299 28.859-8.613 45.043-9.156l0.229-0.006c1.337-0.108 2.894-0.17 4.465-0.17 11.082 0 21.447 3.068 30.292 8.402l-0.264-0.148c6.892 7.119 11.14 16.833 11.14 27.54 0 1.882-0.131 3.733-0.385 5.544l0.024-0.209v8.354c-11.805-11.644-27.706-19.162-45.348-20.201l-0.193-0.009c-41.768 0-62.787 26.947-62.787 77.878-0.078 1.326-0.122 2.877-0.122 4.438 0 19.437 6.86 37.272 18.29 51.216l-0.113-0.142c11.081 12.766 27.333 20.791 45.459 20.791 0.787 0 1.57-0.015 2.35-0.045l-0.112 0.003c16.061-0.181 30.892-5.299 43.087-13.904l-0.24 0.161 2.964 9.701h37.726zM770.695 338.863v76.8c-7.159 3.553-15.564 5.718-24.452 5.927l-0.070 0.001c-26.947 0-42.038-16.168-42.038-48.236-0.136-1.434-0.213-3.101-0.213-4.786 0-11.176 3.402-21.558 9.227-30.166l-0.121 0.19c6.042-6.69 14.747-10.876 24.43-10.876 0.886 0 1.764 0.035 2.632 0.104l-0.115-0.007c11.638 0.579 22.226 4.639 30.862 11.151l-0.142-0.102z" />
<glyph unicode="&#xe904;" glyph-name="dxf" d="M95.394 785.381v-680.421c0 0 0 0 0 0 0-94.856 76.82-171.771 171.64-171.924h489.649c94.951 0 171.924 76.973 171.924 171.924v0 557.272l-294.804 294.804h-366.754c-94.741-0.153-171.501-76.914-171.655-171.64v-0.015zM158.989 104.96v680.421c0 59.53 48.259 107.789 107.789 107.789v0h340.615v-167.074c0.458-49.508 40.698-89.465 90.27-89.465 0.001 0 0.003 0 0.004 0h167.343v-530.863c0-59.53-48.259-107.789-107.789-107.789v0h-490.173c-59.53 0-107.789 48.259-107.789 107.789v0zM412.834 293.592h-40.421v19.672c-8.62-7.66-18.353-14.382-28.851-19.836l-0.791-0.374c-6.3-2.558-13.608-4.043-21.263-4.043-0.104 0-0.207 0-0.311 0.001h0.016c-0.394-0.011-0.857-0.018-1.322-0.018-16.721 0-31.487 8.368-40.34 21.144l-0.107 0.162c-9.718 14.805-15.501 32.95-15.501 52.446 0 1.837 0.051 3.661 0.153 5.473l-0.011-0.251c-0.060 1.226-0.094 2.664-0.094 4.109 0 20.763 7.030 39.883 18.841 55.111l-0.153-0.205c10.902 13.836 27.658 22.637 46.47 22.637 0.147 0 0.294-0.001 0.441-0.002h-0.023c0.416 0.009 0.906 0.015 1.397 0.015 6.017 0 11.848-0.792 17.397-2.277l-0.469 0.107c9.417-3.062 17.528-6.712 25.151-11.114l-0.628 0.335v65.213h40.421zM372.413 332.665v82.998c-7.159 3.553-15.564 5.718-24.452 5.927l-0.070 0.001c-26.947 0-42.038-17.246-42.038-51.469-0.121-1.478-0.19-3.2-0.19-4.938 0-11.985 3.274-23.206 8.976-32.817l-0.163 0.298c5.973-7.144 14.889-11.655 24.858-11.655 0.735 0 1.464 0.025 2.187 0.073l-0.098-0.005c11.866 0.723 22.569 5.18 31.081 12.2l-0.092-0.074zM616.286 293.592h-47.966l-35.84 50.392-36.109-50.392h-45.541l58.206 76.261-57.398 76.261h47.966l35.032-49.583 35.301 49.583h45.811l-57.937-74.644zM761.802 471.714v0c-5.786 1.779-12.447 2.855-19.344 2.963l-0.058 0.001c-1.041 0.118-2.248 0.185-3.47 0.185-6.971 0-13.431-2.187-18.731-5.913l0.104 0.069c-3.948-4.657-6.348-10.735-6.348-17.373 0-1 0.054-1.986 0.16-2.958l-0.011 0.12v-2.695h38.535v-26.947h-37.996v-125.844h-40.96v127.731h-20.749v26.947h20.749v5.12c0 33.954 18.863 50.931 56.051 50.931 0.452 0.003 0.986 0.005 1.521 0.005 10.681 0 21.179-0.786 31.439-2.302l-1.162 0.141z" />
<glyph unicode="&#xe905;" glyph-name="emf" d="M95.394 785.381v-680.421c0 0 0 0 0 0 0-94.856 76.82-171.771 171.64-171.924h489.649c94.951 0 171.924 76.973 171.924 171.924v0 557.272l-294.804 294.804h-366.754c-94.741-0.153-171.501-76.914-171.655-171.64v-0.015zM158.989 104.96v680.421c0 59.53 48.259 107.789 107.789 107.789v0h340.615v-167.074c0.458-49.508 40.698-89.465 90.27-89.465 0.001 0 0.003 0 0.004 0h167.343v-530.863c0-59.53-48.259-107.789-107.789-107.789v0h-490.173c-59.53 0-107.789 48.259-107.789 107.789v0zM374.568 364.194h-107.789c1.617-30.72 18.863-45.811 51.739-45.811 19.73 0.621 37.736 7.517 52.213 18.746l-0.204-0.152v-35.032c-17.195-7.133-37.141-11.452-58.046-11.854l-0.16-0.002c-1.807-0.126-3.917-0.197-6.044-0.197-22.196 0-42.569 7.801-58.529 20.81l0.168-0.133c-14.070 13.594-22.806 32.631-22.806 53.708 0 1.772 0.062 3.53 0.183 5.272l-0.013-0.235c-0.076 1.331-0.12 2.889-0.12 4.457 0 21.438 8.128 40.978 21.471 55.706l-0.063-0.070c14.118 13.578 33.338 21.941 54.512 21.941 1.489 0 2.969-0.041 4.437-0.123l-0.204 0.009c45.811 0 68.716-24.253 68.716-73.027zM334.147 387.099c0 26.947-10.779 39.343-31.798 39.343s-34.223-13.204-35.571-39.343zM654.013 294.131h-41.229v76.531c0.231 4.025 0.362 8.734 0.362 13.474s-0.131 9.448-0.391 14.123l0.029-0.65c-0.292 6.44-3.367 12.109-8.042 15.866l-0.042 0.033c-4.799 2.574-10.499 4.086-16.553 4.086-0.623 0-1.242-0.016-1.857-0.048l0.086 0.004c-11.161-1.398-21.15-5.534-29.547-11.71l0.174 0.122v-111.562h-42.038v76.261c0.006 0.554 0.009 1.209 0.009 1.865 0 8.843-0.591 17.549-1.735 26.079l0.109-0.997c-0.416 6.246-3.467 11.705-8.040 15.326l-0.044 0.034c-4.753 2.57-10.405 4.081-16.409 4.081-0.579 0-1.154-0.014-1.726-0.042l0.081 0.003c-11.179-1.252-21.199-5.411-29.524-11.697l0.151 0.109v-111.562h-40.421v152.792h40.691v-21.288c8.921 7.72 18.896 14.687 29.555 20.566l0.895 0.453c6.231 2.726 13.492 4.312 21.123 4.312 0.058 0 0.116 0 0.174 0h-0.009c19.264-0.032 35.67-12.237 41.938-29.332l0.1-0.31c9.223 8.575 19.561 16.166 30.717 22.482l0.812 0.423c6.93 3.833 15.181 6.12 23.96 6.198h0.024c30.72 0 46.080-18.594 46.080-56.32zM799.259 472.253v0c-5.864 1.761-12.617 2.835-19.601 2.963l-0.071 0.001c-0.998 0.107-2.156 0.167-3.328 0.167-7.015 0-13.522-2.179-18.879-5.898l0.109 0.072c-3.803-4.611-6.11-10.58-6.11-17.087 0-1.101 0.066-2.186 0.194-3.252l-0.013 0.129v-2.695h38.265v-26.947h-38.265v-125.844h-40.421v127.192h-20.749v26.947h20.749v5.12c0 33.954 18.594 50.931 56.051 50.931 0.507 0.004 1.106 0.007 1.706 0.007 10.522 0 20.861-0.786 30.96-2.303l-1.138 0.14z" />
<glyph unicode="&#xe906;" glyph-name="gif" d="M95.394 785.381v-680.421c0 0 0 0 0 0 0-94.856 76.82-171.771 171.64-171.924h489.649c94.951 0 171.924 76.973 171.924 171.924v0 557.272l-294.804 294.804h-366.754c-94.741-0.153-171.501-76.914-171.655-171.64v-0.015zM158.989 104.96v680.421c0 59.53 48.259 107.789 107.789 107.789v0h340.615v-167.074c0.458-49.508 40.698-89.465 90.27-89.465 0.001 0 0.003 0 0.004 0h167.343v-530.863c0-59.53-48.259-107.789-107.789-107.789v0h-490.173c-59.53 0-107.789 48.259-107.789 107.789v0zM465.381 311.646c0.166-1.857 0.261-4.017 0.261-6.199 0-19.113-7.262-36.53-19.178-49.642l0.054 0.061c-14.563-11.447-33.162-18.359-53.375-18.359-2.554 0-5.083 0.11-7.581 0.327l0.325-0.023c-19.12 0.044-37.714 2.201-55.589 6.251l1.694-0.323v32.876h1.886c13.378-5.299 28.859-8.613 45.043-9.156l0.229-0.006c1.395-0.119 3.019-0.188 4.659-0.188 11.019 0 21.32 3.076 30.090 8.417l-0.256-0.145c6.892 7.119 11.14 16.833 11.14 27.54 0 1.882-0.131 3.733-0.385 5.544l0.024-0.209v8.354c-11.805-11.644-27.706-19.162-45.348-20.201l-0.193-0.009c-41.768 0-62.787 26.947-62.787 77.878-0.067 1.233-0.106 2.677-0.106 4.129 0 19.577 6.959 37.53 18.538 51.517l-0.109-0.135c10.939 12.746 27.067 20.77 45.069 20.77 0.545 0 1.088-0.007 1.629-0.022l-0.080 0.002c16.061-0.181 30.892-5.299 43.087-13.904l-0.24 0.161 2.964 9.701h37.996zM424.96 338.594v77.069c-7.159 3.553-15.564 5.718-24.452 5.927l-0.070 0.001c-26.947 0-42.038-16.168-42.038-48.236-0.136-1.434-0.213-3.101-0.213-4.786 0-11.176 3.402-21.558 9.227-30.166l-0.121 0.19c6.086-6.686 14.826-10.866 24.541-10.866 0.847 0 1.686 0.032 2.517 0.094l-0.111-0.007c11.64 0.561 22.232 4.624 30.859 11.15l-0.139-0.101zM562.661 465.516h-43.385v36.379h43.385zM561.044 293.861h-40.152v152.792h40.152zM707.907 471.983v0c-6.21 1.86-13.349 2.941-20.737 2.964h-0.013c-0.998 0.107-2.156 0.167-3.328 0.167-7.015 0-13.522-2.179-18.879-5.898l0.109 0.072c-3.803-4.611-6.11-10.58-6.11-17.087 0-1.101 0.066-2.186 0.194-3.252l-0.013 0.129v-2.695h38.265v-26.947h-36.918v-125.844h-40.691v127.461h-20.749v26.947h20.749v5.12c0 32.606 18.863 48.775 56.32 48.775 0.452 0.003 0.986 0.005 1.521 0.005 10.681 0 21.179-0.786 31.439-2.302l-1.162 0.141z" />
<glyph unicode="&#xe907;" glyph-name="jpeg" d="M95.394 785.381v-680.421c0 0 0 0 0 0 0-94.856 76.82-171.771 171.64-171.924h489.649c94.951 0 171.924 76.973 171.924 171.924v0 557.272l-294.804 294.804h-366.754c-94.741-0.153-171.501-76.914-171.655-171.64v-0.015zM158.989 104.96v680.421c0 59.53 48.259 107.789 107.789 107.789v0h340.615v-167.074c0.458-49.508 40.698-89.465 90.27-89.465 0.001 0 0.003 0 0.004 0h167.343v-530.863c0-59.53-48.259-107.789-107.789-107.789v0h-490.173c-59.53 0-107.789 48.259-107.789 107.789v0zM275.941 293.592c0.051-0.88 0.081-1.91 0.081-2.947 0-14.438-5.677-27.55-14.921-37.225l0.019 0.021c-9.653-9.216-22.759-14.888-37.191-14.888-0.947 0-1.888 0.024-2.822 0.073l0.131-0.005c-0.767-0.013-1.672-0.021-2.579-0.021-11.782 0-23.264 1.284-34.313 3.719l1.053-0.195v29.373h3.234c6.457-2.534 13.929-4.097 21.737-4.31l0.090-0.002c0.657-0.061 1.421-0.096 2.193-0.096 7.069 0 13.454 2.927 18.010 7.635l0.007 0.007c4.058 7.391 6.446 16.196 6.446 25.558 0 1.818-0.090 3.614-0.266 5.386l0.018-0.224v115.604h-31.798v26.947h70.872zM275.941 466.594h-42.846v35.301h43.116zM371.335 304.909v-65.482h-40.421v207.225h40.421v-20.48c8.266 7.575 17.658 14.127 27.849 19.339l0.715 0.332c6.922 3.066 14.996 4.851 23.487 4.851 0.080 0 0.159 0 0.239 0h-0.012c0.647 0.032 1.405 0.050 2.167 0.050 16.138 0 30.393-8.060 38.96-20.374l0.102-0.155c9.407-14.605 14.997-32.44 14.997-51.581 0-2.046-0.064-4.078-0.19-6.093l0.014 0.276c0.107-1.63 0.168-3.534 0.168-5.452 0-20.471-6.959-39.316-18.64-54.299l0.148 0.197c-10.752-13.672-27.294-22.371-45.867-22.371-0.264 0-0.528 0.002-0.791 0.005h0.040c-16.119 1.041-30.864 6.122-43.477 14.23l0.361-0.217zM371.335 408.926v-84.076c6.987-2.902 15.103-4.588 23.612-4.588 0.32 0 0.64 0.002 0.958 0.007l-0.048-0.001q42.038 0 42.038 50.931c0 32.337-11.857 48.505-35.301 48.505-11.671-0.76-22.295-4.682-31.186-10.91l0.197 0.131zM661.019 364.194h-107.789c1.617-30.72 19.133-45.811 52.008-45.811 19.641 0.622 37.558 7.52 51.936 18.742l-0.197-0.148h1.347v-35.032c-17.112-7.107-36.961-11.423-57.765-11.854l-0.172-0.003c-2.028-0.157-4.391-0.246-6.775-0.246-22.315 0-42.805 7.817-58.88 20.862l0.174-0.136c-14.221 13.614-23.059 32.751-23.059 53.951 0 1.687 0.056 3.36 0.166 5.019l-0.012-0.225c-0.076 1.331-0.12 2.889-0.12 4.457 0 21.438 8.128 40.978 21.471 55.706l-0.063-0.070c14.162 13.603 33.433 21.979 54.66 21.979 1.722 0 3.431-0.055 5.125-0.164l-0.231 0.012c45.811 0 68.716-24.253 68.716-73.027zM619.789 387.099c0 26.947-11.048 39.343-32.067 39.343s-34.223-13.204-35.571-39.343zM841.027 311.646c0.146-1.747 0.23-3.78 0.23-5.833 0-19.271-7.356-36.824-19.413-50.005l0.051 0.056c-14.502-11.455-33.048-18.375-53.21-18.375-2.613 0-5.198 0.116-7.751 0.344l0.33-0.024c-19.127 0.059-37.719 2.216-55.599 6.252l1.704-0.323v32.876h1.886c13.461-5.329 29.040-8.646 45.326-9.157l0.215-0.005c1.382-0.119 2.991-0.187 4.616-0.187 10.943 0 21.168 3.077 29.856 8.413l-0.248-0.142c7.034 7.145 11.377 16.957 11.377 27.783 0 1.795-0.119 3.563-0.351 5.295l0.022-0.203v8.354c-11.907-11.639-27.892-19.152-45.615-20.201l-0.195-0.009c-41.768 0-62.787 26.947-62.787 77.878-0.067 1.233-0.106 2.677-0.106 4.129 0 19.577 6.959 37.53 18.538 51.517l-0.109-0.135c10.986 12.746 27.152 20.767 45.191 20.767 0.502 0 1.003-0.006 1.502-0.019l-0.074 0.001c16.148-0.212 31.061-5.323 43.368-13.91l-0.252 0.167 2.695 9.701h38.265zM800.606 338.594v77.069c-7.244 3.558-15.741 5.723-24.723 5.927l-0.069 0.001c-26.947 0-41.768-16.168-41.768-48.236-0.108-1.314-0.17-2.844-0.17-4.388 0-11.266 3.277-21.767 8.929-30.602l-0.136 0.228c6.174-6.681 14.982-10.85 24.763-10.85 0.768 0 1.531 0.026 2.287 0.076l-0.102-0.006c12.105 0.379 23.185 4.467 32.222 11.158l-0.155-0.11z" />
<glyph unicode="&#xe908;" glyph-name="jpg" d="M95.394 785.381v-680.421c0 0 0 0 0 0 0-94.856 76.82-171.771 171.64-171.924h489.649c94.951 0 171.924 76.973 171.924 171.924v0 557.272l-294.804 294.804h-366.754c-94.741-0.153-171.501-76.914-171.655-171.64v-0.015zM158.989 104.96v680.421c0 59.53 48.259 107.789 107.789 107.789v0h340.615v-167.074c0.458-49.508 40.698-89.465 90.27-89.465 0.001 0 0.003 0 0.004 0h167.343v-530.863c0-59.53-48.259-107.789-107.789-107.789v0h-490.173c-59.53 0-107.789 48.259-107.789 107.789v0zM374.568 293.592c0.048-0.827 0.075-1.795 0.075-2.77 0-28.277-22.923-51.2-51.2-51.2-0.974 0-1.942 0.027-2.903 0.081l0.133-0.006c-0.681-0.010-1.484-0.016-2.289-0.016-11.883 0-23.466 1.282-34.619 3.715l1.068-0.195v28.295h1.886c6.541-2.564 14.11-4.13 22.021-4.31l0.076-0.001c0.614-0.054 1.328-0.085 2.050-0.085 7.028 0 13.372 2.924 17.884 7.622l0.008 0.008c4.101 7.199 6.518 15.817 6.518 25 0 2.015-0.116 4.004-0.343 5.958l0.022-0.238v115.604h-31.528v26.947h70.602zM374.568 466.594h-43.385v35.301h43.385zM469.693 304.909v-65.482h-40.421v207.225h40.421v-20.48c8.34 7.586 17.822 14.142 28.107 19.339l0.726 0.333c6.781 3.066 14.702 4.852 23.040 4.852 0.142 0 0.284-0.001 0.426-0.002h-0.022c0.602 0.027 1.309 0.042 2.019 0.042 16.26 0 30.641-8.045 39.379-20.372l0.101-0.15c9.388-14.799 14.961-32.822 14.961-52.147 0-1.847-0.051-3.682-0.151-5.505l0.011 0.253c0.066-1.265 0.103-2.746 0.103-4.236 0-20.589-7.149-39.508-19.099-54.411l0.133 0.171c-10.649-13.668-27.111-22.375-45.607-22.375-0.356 0-0.711 0.003-1.065 0.010l0.053-0.001c-16.012 0.726-30.782 5.44-43.525 13.165l0.409-0.23zM469.693 408.926v-84.076c7.084-2.902 15.307-4.587 23.922-4.587 0.306 0 0.611 0.002 0.916 0.006l-0.046-0.001c26.947 0 41.768 16.977 41.768 50.931s-11.587 48.505-35.032 48.505c-11.856-0.714-22.669-4.642-31.736-10.914l0.207 0.136zM759.646 311.646c0.166-1.857 0.261-4.017 0.261-6.199 0-19.113-7.262-36.53-19.178-49.642l0.054 0.061c-14.563-11.447-33.162-18.359-53.375-18.359-2.554 0-5.083 0.11-7.581 0.327l0.325-0.023c-19.136 0.079-37.726 2.235-55.612 6.253l1.718-0.324v32.876h2.156c13.378-5.299 28.859-8.613 45.043-9.156l0.229-0.006c1.395-0.119 3.019-0.188 4.659-0.188 11.019 0 21.32 3.076 30.090 8.417l-0.256-0.145c6.892 7.119 11.14 16.833 11.14 27.54 0 1.882-0.131 3.733-0.385 5.544l0.024-0.209v8.354c-11.83-11.604-27.716-19.11-45.339-20.201l-0.202-0.010c-41.768 0-62.787 26.947-62.787 77.878-0.067 1.233-0.106 2.677-0.106 4.129 0 19.577 6.959 37.53 18.538 51.517l-0.109-0.135c10.939 12.746 27.067 20.77 45.069 20.77 0.545 0 1.088-0.007 1.629-0.022l-0.080 0.002c16.061-0.181 30.892-5.299 43.087-13.904l-0.24 0.161 2.964 9.701h37.996zM719.225 338.594v77.069c-7.159 3.553-15.564 5.718-24.452 5.927l-0.070 0.001c-26.947 0-42.038-16.168-42.038-48.236-0.136-1.434-0.213-3.101-0.213-4.786 0-11.176 3.402-21.558 9.227-30.166l-0.121 0.19c6.042-6.69 14.747-10.876 24.43-10.876 0.886 0 1.764 0.035 2.632 0.104l-0.115-0.007c11.638 0.579 22.226 4.639 30.862 11.151l-0.142-0.102z" />
<glyph unicode="&#xe909;" glyph-name="mail" d="M1021.305 735.528c-4.659 24.187-14.988 45.424-29.56 63.020l0.187-0.232c-2.964 3.773-6.198 7.276-9.432 10.779-25.731 25.644-61.231 41.499-100.434 41.499-0.028 0-0.056 0-0.084 0h-739.97c-39.335-0.239-74.855-16.373-100.501-42.295l-0.012-0.013c-3.234-3.503-6.467-7.006-9.432-10.779-14.27-17.147-24.577-38.090-29.222-61.086l-0.151-0.893c-1.71-8.1-2.691-17.408-2.695-26.944v-520.357c0.165-39.201 15.979-74.676 41.513-100.528l-0.014 0.015c3.234-3.234 6.467-5.928 9.971-8.893 24.244-20.287 55.76-32.607 90.154-32.607 0.137 0 0.274 0 0.411 0.001h739.954c0.173-0.001 0.379-0.001 0.584-0.001 34.331 0 65.783 12.322 90.177 32.785l-0.217-0.177c3.503 2.964 6.737 5.659 9.971 8.893 12.186 12.392 22.239 26.93 29.531 42.987l0.381 0.937c7.324 16.457 11.589 35.658 11.589 55.856 0 0.258-0.001 0.516-0.002 0.774v-0.040 519.545c0.001 0.221 0.002 0.483 0.002 0.745 0 9.56-0.982 18.891-2.85 27.897l0.154-0.886zM92.968 756.817c12.509 12.646 29.862 20.477 49.044 20.48h739.975c19.183-0.003 36.536-7.834 49.038-20.474l0.006-0.006c2.133-2.22 4.163-4.592 6.053-7.077l0.145-0.199-387.773-337.92c-9.969-8.693-23.094-13.993-37.457-13.993s-27.487 5.3-37.525 14.052l0.068-0.058-387.503 338.189c1.826 2.614 3.775 4.905 5.919 6.997l0.010 0.010zM72.758 188.227v485.053l280.522-244.952-280.522-243.065zM881.179 118.703h-739.166c-12.599 0.025-24.399 3.423-34.551 9.339l0.328-0.177 296.421 257.886 26.947-23.983c21.526-18.739 49.85-30.162 80.842-30.162s59.316 11.423 80.991 30.289l-0.149-0.127 26.947 23.983 296.421-257.886c-9.824-5.739-21.624-9.138-34.216-9.162h-0.007zM950.434 188.227v-2.964l-279.714 244.413 280.522 244.682z" />
<glyph unicode="&#xe90a;" glyph-name="PDF" d="M95.394 785.381v-680.421c0 0 0 0 0 0 0-94.856 76.82-171.771 171.64-171.924h489.649c94.951 0 171.924 76.973 171.924 171.924v0 557.272l-294.804 294.804h-366.754c-94.741-0.153-171.501-76.914-171.655-171.64v-0.015zM158.989 104.96v680.421c0 59.53 48.259 107.789 107.789 107.789v0h340.615v-167.074c0.458-49.508 40.698-89.465 90.27-89.465 0.001 0 0.003 0 0.004 0h167.343v-530.863c0-59.53-48.259-107.789-107.789-107.789v0h-490.173c-59.53 0-107.789 48.259-107.789 107.789v0zM695.512 320.539c-2.028 0.026-4.422 0.041-6.82 0.041-38.971 0-77.021-3.939-113.775-11.441l3.644 0.621c-25.987 27.484-49.159 58.118-68.754 91.126l-1.309 2.381c57.667 165.726 21.019 212.884-26.947 212.884-38.804 0-57.937-40.691-53.895-85.693 10.101-43.715 25.597-82.296 46.083-117.623l-1.081 2.019c-22.31-59.771-44.535-108.89-69.529-156.324l3.508 7.305c-29.554-8.548-54.241-17.72-78.082-28.437l3.707 1.49c-92.16-42.846-99.436-99.975-80.842-124.227 36.379-46.080 113.987-6.467 191.596 132.851 53.895 15.091 123.419 35.301 129.886 35.301h2.695c38.804-34.223 84.615-73.297 122.611-78.417 53.895-7.545 85.693 32.067 83.537 56.589s-16.977 56.051-86.232 60.093zM350.316 170.981c-22.636-26.947-59.015-52.278-71.949-43.924s-15.091 33.415 14.013 61.171c23.95 19.442 52.272 34.594 83.168 43.757l1.716 0.437c8.623 3.234 10.779 0 10.779-4.312-10.078-21.935-22.717-40.783-37.87-57.287l0.144 0.159zM448.674 530.998c-2.156 26.947 3.234 52.547 26.947 55.781s33.145-22.636 24.522-64.404c-3.4-27.144-9.45-51.731-18-75.114l0.754 2.357c-4.042-3.234-8.354 7.545-8.354 7.545-12.119 21.315-20.993 46.17-25.168 72.587l-0.163 1.248zM458.105 279.309c11.857 19.402 41.768 97.549 41.768 97.549 6.467-11.857 56.859-71.949 56.859-71.949s-77.339-16.977-98.627-25.6zM691.739 245.086c-33.122 9.952-61.975 24.581-87.556 43.398l0.786-0.552c-7.545 3.234 59.823 12.396 85.693 10.779 33.145-2.156 45.002-16.168 45.002-30.181s-12.126-27.756-44.194-23.444z" />
<glyph unicode="&#xe90b;" glyph-name="png" d="M95.394 785.381v-680.421c0 0 0 0 0 0 0-94.856 76.82-171.771 171.64-171.924h489.649c94.951 0 171.924 76.973 171.924 171.924v0 557.272l-294.804 294.804h-366.754c-94.741-0.153-171.501-76.914-171.655-171.64v-0.015zM158.989 104.96v680.421c0 59.53 48.259 107.789 107.789 107.789v0h340.615v-167.074c0.458-49.508 40.698-89.465 90.27-89.465 0.001 0 0.003 0 0.004 0h167.343v-530.863c0-59.53-48.259-107.789-107.789-107.789v0h-490.173c-59.53 0-107.789 48.259-107.789 107.789v0zM291.571 304.909v-65.482h-40.421v207.225h40.421v-20.48c8.34 7.586 17.822 14.142 28.107 19.339l0.726 0.333c6.781 3.066 14.702 4.852 23.040 4.852 0.142 0 0.284-0.001 0.426-0.002h-0.022c0.602 0.027 1.309 0.042 2.019 0.042 16.26 0 30.641-8.045 39.379-20.372l0.101-0.15c9.235-14.709 14.714-32.589 14.714-51.749 0-1.987-0.059-3.961-0.175-5.919l0.013 0.27c0.095-1.533 0.149-3.325 0.149-5.13 0-20.614-7.057-39.58-18.886-54.613l0.144 0.189c-10.649-13.668-27.111-22.375-45.607-22.375-0.356 0-0.711 0.003-1.065 0.010l0.053-0.001c-16.116 1.078-30.854 6.153-43.484 14.233l0.369-0.221zM291.571 408.926v-84.076c7.051-2.901 15.235-4.585 23.814-4.585 0.249 0 0.498 0.001 0.746 0.004h-0.038q42.038 0 42.038 50.931c0 32.337-11.587 48.505-35.032 48.505-11.86-0.67-22.682-4.605-31.729-10.911l0.2 0.132zM587.992 294.131h-42.038v75.992c0.315 2.481 0.495 5.352 0.495 8.264 0 11.438-2.773 22.228-7.683 31.735l0.182-0.387c-5.313 4.763-12.371 7.675-20.109 7.675-0.985 0-1.958-0.047-2.918-0.139l0.122 0.009c-12.025-0.963-22.911-5.162-31.983-11.715l0.185 0.127v-111.562h-40.152v152.522h40.96v-21.288c8.888 7.614 18.874 14.417 29.568 20.056l0.883 0.424c6.911 3.039 14.966 4.82 23.433 4.85h0.011c32.067 0 48.236-18.594 48.236-56.32zM779.587 311.646c0.166-1.857 0.261-4.017 0.261-6.199 0-19.113-7.262-36.53-19.178-49.642l0.054 0.061c-14.563-11.447-33.162-18.359-53.375-18.359-2.554 0-5.083 0.11-7.581 0.327l0.325-0.023c-19.136 0.079-37.726 2.235-55.612 6.253l1.718-0.324v32.876h0.539c13.378-5.299 28.859-8.613 45.043-9.156l0.229-0.006c1.621-0.159 3.505-0.25 5.409-0.25 11.136 0 21.549 3.099 30.422 8.481l-0.261-0.147c6.892 7.119 11.14 16.833 11.14 27.54 0 1.882-0.131 3.733-0.385 5.544l0.024-0.209v8.354c-11.83-11.604-27.716-19.11-45.339-20.201l-0.202-0.010c-42.038 0-62.787 26.947-62.787 77.878-0.142 1.798-0.223 3.892-0.223 6.006 0 18.733 6.372 35.978 17.066 49.685l-0.135-0.18c10.986 12.746 27.152 20.767 45.191 20.767 0.502 0 1.003-0.006 1.502-0.019l-0.074 0.001c16.155-0.122 31.089-5.249 43.356-13.904l-0.24 0.161 2.695 9.701h38.265zM739.166 338.594v77.069c-7.159 3.553-15.564 5.718-24.452 5.927l-0.070 0.001c-26.947 0-42.038-16.168-42.038-48.236-0.136-1.434-0.213-3.101-0.213-4.786 0-11.176 3.402-21.558 9.227-30.166l-0.121 0.19c6.042-6.69 14.747-10.876 24.43-10.876 0.886 0 1.764 0.035 2.632 0.104l-0.115-0.007c11.158 0.858 21.237 4.876 29.511 11.149l-0.139-0.101z" />
<glyph unicode="&#xe90c;" glyph-name="pptx" d="M95.394 785.381v-680.421c0 0 0 0 0 0 0-94.856 76.82-171.771 171.64-171.924h489.649c94.951 0 171.924 76.973 171.924 171.924v0 557.272l-294.804 294.804h-366.754c-94.741-0.153-171.501-76.914-171.655-171.64v-0.015zM158.989 104.96v680.421c0 59.53 48.259 107.789 107.789 107.789v0h340.615v-167.074c0.458-49.508 40.698-89.465 90.27-89.465 0.001 0 0.003 0 0.004 0h167.343v-530.863c0-59.53-48.259-107.789-107.789-107.789v0h-490.173c-59.53 0-107.789 48.259-107.789 107.789v0zM517.928 536.118c3.729 0.277 8.077 0.434 12.462 0.434 39.817 0 76.597-13.006 106.323-35.001l-0.486 0.343c25.339-22.746 41.206-55.606 41.206-92.171 0-2.746-0.089-5.47-0.266-8.171l0.019 0.368c0.032-1.093 0.050-2.379 0.050-3.669 0-53.794-31.526-100.226-77.11-121.826l-0.818-0.349c-23.556-10.641-51.072-16.841-80.035-16.841-2.558 0-5.105 0.048-7.64 0.144l0.366-0.011h-80.842v-152.253h-84.615v431.158zM431.158 324.312h72.219c1.554-0.091 3.372-0.143 5.201-0.143 21.639 0 41.585 7.246 57.546 19.443l-0.229-0.168c13.402 12.828 21.732 30.861 21.732 50.839 0 1.739-0.063 3.463-0.187 5.17l0.013-0.229c0 47.427-26.947 71.141-82.728 71.141h-73.566z" />
<glyph unicode="&#xe90d;" glyph-name="rtf" d="M95.394 785.381v-680.421c0 0 0 0 0 0 0-94.856 76.82-171.771 171.64-171.924h489.649c94.951 0 171.924 76.973 171.924 171.924v0 557.272l-294.804 294.804h-366.754c-94.741-0.153-171.501-76.914-171.655-171.64v-0.015zM158.989 104.96v680.421c0 59.53 48.259 107.789 107.789 107.789v0h340.615v-167.074c0.458-49.508 40.698-89.465 90.27-89.465 0.001 0 0.003 0 0.004 0h167.343v-530.863c0-59.53-48.259-107.789-107.789-107.789v0h-490.173c-59.53 0-107.789 48.259-107.789 107.789v0zM428.463 405.423v0c-6.089 1.425-13.081 2.242-20.263 2.242-1.403 0-2.799-0.031-4.187-0.093l0.198 0.007c-0.22 0.002-0.481 0.002-0.742 0.002-13.961 0-27.322-2.571-39.634-7.265l0.764 0.256v-106.442h-39.882v152.522h40.152v-26.947c8.864 8.655 18.969 16.096 30.011 22.019l0.709 0.347c6.787 3.691 14.855 5.881 23.43 5.928h8.638zM568.859 295.208c-10.146-2.57-21.793-4.045-33.784-4.045-0.344 0-0.688 0.001-1.031 0.004h0.053c-1.332-0.106-2.883-0.167-4.448-0.167-13.353 0-25.675 4.415-35.586 11.864l0.152-0.11c-7.83 8.73-12.617 20.329-12.617 33.046 0 1.648 0.080 3.278 0.238 4.884l-0.016-0.204v80.573h-21.019v26.947h20.211v41.229h40.152v-42.577h46.888v-26.947h-46.888v-62.787c-0.202-1.753-0.317-3.783-0.317-5.841 0-9.414 2.414-18.264 6.656-25.966l-0.141 0.279c4.849-4.724 11.482-7.637 18.796-7.637 0.783 0 1.557 0.033 2.323 0.099l-0.1-0.007c6.708 0.085 13.004 1.77 18.548 4.689l-0.224-0.107zM711.949 472.253v0c-5.786 1.779-12.447 2.855-19.344 2.963l-0.058 0.001c-1.041 0.118-2.248 0.185-3.47 0.185-6.971 0-13.431-2.187-18.731-5.913l0.104 0.069c-3.948-4.657-6.348-10.735-6.348-17.373 0-1 0.054-1.986 0.16-2.958l-0.011 0.12v-2.695h36.379v-26.947h-36.648v-125.844h-40.691v127.192h-20.749v26.947h20.749v5.12c0 33.954 18.863 50.931 56.051 50.931 0.452 0.003 0.986 0.005 1.521 0.005 10.681 0 21.179-0.786 31.439-2.302l-1.162 0.141z" />
<glyph unicode="&#xe90e;" glyph-name="tif" d="M95.394 785.381v-680.421c0 0 0 0 0 0 0-94.856 76.82-171.771 171.64-171.924h489.649c94.951 0 171.924 76.973 171.924 171.924v0 557.272l-294.804 294.804h-366.754c-94.741-0.153-171.501-76.914-171.655-171.64v-0.015zM158.989 104.96v680.421c0 59.53 48.259 107.789 107.789 107.789v0h340.615v-167.074c0.458-49.508 40.698-89.465 90.27-89.465 0.001 0 0.003 0 0.004 0h167.343v-530.863c0-59.53-48.259-107.789-107.789-107.789v0h-490.173c-59.53 0-107.789 48.259-107.789 107.789v0zM441.937 295.208c-10.057-2.57-21.603-4.046-33.493-4.046-0.351 0-0.703 0.001-1.053 0.004h0.054c-1.38-0.115-2.987-0.181-4.609-0.181-13.303 0-25.572 4.422-35.42 11.875l0.147-0.107c-7.973 8.803-12.852 20.537-12.852 33.411 0 1.519 0.068 3.023 0.201 4.507l-0.014-0.192v80.573h-19.941v26.947h20.211v41.229h40.152v-42.577h46.619v-26.947h-46.619v-62.787c-0.202-1.753-0.317-3.783-0.317-5.841 0-9.414 2.414-18.264 6.656-25.966l-0.141 0.279c4.567-4.743 10.971-7.69 18.063-7.69 0.946 0 1.88 0.052 2.799 0.155l-0.113-0.010c6.8 0.114 13.182 1.794 18.835 4.693l-0.241-0.112zM535.714 465.785h-43.385v36.109h43.385zM534.366 294.131h-40.421v152.522h40.421zM694.434 472.253v0c-6.006 1.713-12.905 2.698-20.033 2.698-0.252 0-0.503-0.001-0.754-0.004h0.038c-0.998 0.107-2.156 0.167-3.328 0.167-7.015 0-13.522-2.179-18.879-5.898l0.109 0.072c-3.341-4.438-5.351-10.043-5.351-16.117 0-1.829 0.182-3.616 0.53-5.343l-0.029 0.172v-2.695h38.535v-26.947h-38.535v-125.844h-40.421v128.539h-20.749v26.947h20.749v5.12c0 33.954 18.594 50.931 56.051 50.931 0.452 0.003 0.986 0.005 1.521 0.005 10.681 0 21.179-0.786 31.439-2.302l-1.162 0.141z" />
<glyph unicode="&#xe90f;" glyph-name="tiff" d="M95.394 785.381v-680.421c0 0 0 0 0 0 0-94.856 76.82-171.771 171.64-171.924h489.649c94.951 0 171.924 76.973 171.924 171.924v0 557.272l-294.804 294.804h-366.754c-94.741-0.153-171.501-76.914-171.655-171.64v-0.015zM158.989 104.96v680.421c0 59.53 48.259 107.789 107.789 107.789v0h340.615v-167.074c0.458-49.508 40.698-89.465 90.27-89.465 0.001 0 0.003 0 0.004 0h167.343v-530.863c0-59.53-48.259-107.789-107.789-107.789v0h-490.173c-59.53 0-107.789 48.259-107.789 107.789v0zM389.928 295.208c-10.115-2.57-21.727-4.044-33.683-4.044-0.285 0-0.569 0.001-0.854 0.003h0.044c-1.429-0.125-3.091-0.196-4.77-0.196-13.252 0-25.47 4.429-35.254 11.887l0.142-0.104c-7.991 8.659-12.891 20.275-12.891 33.036 0 1.652 0.082 3.284 0.242 4.894l-0.016-0.203v80.573h-19.941v26.947h19.941v41.229h40.421v-42.577h46.619v-26.947h-46.619v-62.787c-0.142-1.441-0.223-3.115-0.223-4.808 0-9.757 2.687-18.886 7.36-26.688l-0.131 0.236c4.567-4.743 10.971-7.69 18.063-7.69 0.946 0 1.88 0.052 2.799 0.155l-0.113-0.010c6.8 0.114 13.182 1.794 18.835 4.693l-0.241-0.112zM485.053 465.785h-44.733v36.109h44.733zM483.436 294.131h-40.421v152.522h40.421zM746.442 472.253v0c-5.786 1.779-12.447 2.855-19.344 2.963l-0.058 0.001c-1.041 0.118-2.248 0.185-3.47 0.185-6.971 0-13.431-2.187-18.731-5.913l0.104 0.069c-3.948-4.657-6.348-10.735-6.348-17.373 0-1 0.054-1.986 0.16-2.958l-0.011 0.12v-2.695h38.535v-26.947h-36.648v-125.844h-42.038v127.192h-63.596v-126.383h-40.421v126.383h-20.749v26.947h20.749v5.12c0 33.954 18.594 50.931 56.051 50.931 0.507 0.004 1.106 0.007 1.706 0.007 10.522 0 20.861-0.786 30.96-2.303l-1.138 0.14v-29.642c-5.786 1.779-12.447 2.855-19.344 2.963l-0.058 0.001c-1.041 0.118-2.248 0.185-3.47 0.185-6.971 0-13.431-2.187-18.731-5.913l0.104 0.069c-4.898-4.88-7.928-11.631-7.928-19.090 0-0.869 0.041-1.728 0.122-2.576l-0.008 0.108v-2.695h64.943v5.12c0 33.954 18.863 50.931 56.051 50.931 0.506 0.004 1.105 0.007 1.704 0.007 10.617 0 21.051-0.786 31.246-2.304l-1.152 0.141z" />
<glyph unicode="&#xe910;" glyph-name="txt" d="M95.394 785.381v-680.421c0 0 0 0 0 0 0-94.856 76.82-171.771 171.64-171.924h489.649c94.951 0 171.924 76.973 171.924 171.924v0 557.272l-294.804 294.804h-366.754c-94.741-0.153-171.501-76.914-171.655-171.64v-0.015zM158.989 104.96v680.421c0 59.53 48.259 107.789 107.789 107.789v0h340.615v-167.074c0.458-49.508 40.698-89.465 90.27-89.465 0.001 0 0.003 0 0.004 0h167.343v-530.863c0-59.53-48.259-107.789-107.789-107.789v0h-490.173c-59.53 0-107.789 48.259-107.789 107.789v0zM401.516 295.208c-10.146-2.57-21.793-4.045-33.784-4.045-0.344 0-0.688 0.001-1.031 0.004h0.053c-1.332-0.106-2.883-0.167-4.448-0.167-13.353 0-25.675 4.415-35.586 11.864l0.152-0.11c-7.83 8.73-12.617 20.329-12.617 33.046 0 1.648 0.080 3.278 0.238 4.884l-0.016-0.204v80.573h-20.211v26.947h20.211v41.229h40.152v-42.577h46.888v-26.947h-46.888v-62.787c-0.202-1.753-0.317-3.783-0.317-5.841 0-9.414 2.414-18.264 6.656-25.966l-0.141 0.279c4.849-4.724 11.482-7.637 18.796-7.637 0.783 0 1.557 0.033 2.323 0.099l-0.1-0.007c6.708 0.085 13.004 1.77 18.548 4.689l-0.224-0.107h1.347zM587.992 295.208h-49.044l-35.84 50.392-36.109-50.392h-44.463l58.206 76.261-57.398 76.261h47.966l35.032-49.583 35.571 49.583h45.541l-57.937-75.183zM715.992 295.208c-10.146-2.57-21.793-4.045-33.784-4.045-0.344 0-0.688 0.001-1.031 0.004h0.053c-1.332-0.106-2.883-0.167-4.448-0.167-13.353 0-25.675 4.415-35.586 11.864l0.152-0.11c-7.973 8.803-12.852 20.537-12.852 33.411 0 1.519 0.068 3.023 0.201 4.507l-0.014-0.192v80.573h-19.941v26.947h20.211v41.229h40.152v-42.577h46.888v-26.947h-46.888v-62.787c-0.202-1.753-0.317-3.783-0.317-5.841 0-9.414 2.414-18.264 6.656-25.966l-0.141 0.279c4.608-4.738 11.044-7.677 18.166-7.677 0.91 0 1.809 0.048 2.694 0.142l-0.11-0.009c6.799 0.083 13.187 1.767 18.828 4.691l-0.234-0.11h1.347z" />
<glyph unicode="&#xe911;" glyph-name="wmf" d="M95.394 785.381v-680.421c0 0 0 0 0 0 0-94.856 76.82-171.771 171.64-171.924h489.649c94.951 0 171.924 76.973 171.924 171.924v0 557.272l-294.804 294.804h-366.754c-94.741-0.153-171.501-76.914-171.655-171.64v-0.015zM158.989 104.96v680.421c0 59.53 48.259 107.789 107.789 107.789v0h340.615v-167.074c0.458-49.508 40.698-89.465 90.27-89.465 0.001 0 0.003 0 0.004 0h167.343v-530.863c0-59.53-48.259-107.789-107.789-107.789v0h-490.173c-59.53 0-107.789 48.259-107.789 107.789v0zM416.337 446.653l-46.349-152.522h-35.301l-35.032 107.789-35.032-107.789h-35.571l-46.349 152.522h42.307l26.947-100.244 31.798 100.244h35.571l30.989-99.975 25.6 99.975zM690.392 294.131h-40.691v76.531c0.001 0.286 0.002 0.625 0.002 0.963 0 9.152-0.49 18.19-1.445 27.089l0.096-1.105c-0.045 6.498-3.192 12.252-8.032 15.861l-0.053 0.038c-4.739 2.58-10.379 4.097-16.372 4.097-0.687 0-1.369-0.020-2.045-0.059l0.094 0.004c-11.161-1.398-21.15-5.534-29.547-11.71l0.174 0.122v-111.562h-40.691v76.261c0.006 0.554 0.009 1.209 0.009 1.865 0 8.843-0.591 17.549-1.735 26.079l0.109-0.997c-0.416 6.246-3.467 11.705-8.040 15.326l-0.044 0.034c-4.753 2.57-10.405 4.081-16.409 4.081-0.579 0-1.154-0.014-1.726-0.042l0.081 0.003c-11.174-1.293-21.185-5.446-29.53-11.7l0.157 0.113v-111.562h-40.421v152.792h40.421v-21.288c8.921 7.72 18.896 14.687 29.555 20.566l0.895 0.453c6.231 2.726 13.492 4.312 21.123 4.312 0.058 0 0.116 0 0.174 0h-0.009c0.115 0.001 0.251 0.002 0.387 0.002 19.244 0 35.633-12.226 41.823-29.334l0.098-0.31c9.055 8.835 19.222 16.599 30.252 23.046l0.738 0.398c6.923 3.865 15.181 6.156 23.971 6.198h0.012c30.451 0 45.811-18.594 45.811-56.32zM835.368 472.253v0c-5.864 1.761-12.617 2.835-19.601 2.963l-0.071 0.001c-0.998 0.107-2.156 0.167-3.328 0.167-7.015 0-13.522-2.179-18.879-5.898l0.109 0.072c-3.803-4.611-6.11-10.58-6.11-17.087 0-1.101 0.066-2.186 0.194-3.252l-0.013 0.129v-2.695h38.535v-26.947h-37.726v-125.844h-40.421v127.192h-20.48v26.947h20.749v5.12c0 33.954 18.594 50.931 56.051 50.931 0.452 0.003 0.986 0.005 1.521 0.005 10.681 0 21.179-0.786 31.439-2.302l-1.162 0.141z" />
<glyph unicode="&#xe912;" glyph-name="xlsx" d="M95.394 785.381v-680.421c0 0 0 0 0 0 0-94.856 76.82-171.771 171.64-171.924h489.649c94.951 0 171.924 76.973 171.924 171.924v0 557.272l-294.804 294.804h-366.754c-94.741-0.153-171.501-76.914-171.655-171.64v-0.015zM158.989 104.96v680.421c0 59.53 48.259 107.789 107.789 107.789v0h340.615v-167.074c0.458-49.508 40.698-89.465 90.27-89.465 0.001 0 0.003 0 0.004 0h167.343v-530.863c0-59.53-48.259-107.789-107.789-107.789v0h-490.173c-59.53 0-107.789 48.259-107.789 107.789v0zM319.326 109.541l139.587 215.579-128 215.579h102.669l70.063-137.432c4.196-7.81 8.636-17.485 12.534-27.432l0.67-1.941c4.581 10.509 9.432 20.749 14.552 30.451l74.644 134.737h94.585l-130.425-212.345 134.737-217.465h-100.783l-80.842 150.905c-3.393 5.685-6.652 12.34-9.374 19.265l-0.327 0.946h-1.617c-2.514-7.414-5.613-13.828-9.383-19.774l0.22 0.372-83.267-151.444z" />
<glyph unicode="&#xe913;" glyph-name="area" d="M323.368 259.368h700.632v-107.789h-700.632v-134.737l-323.368 188.632 323.368 188.632zM700.632 501.895l323.368 188.632-323.368 188.632v-134.737h-700.632v-107.789h700.632z" />
<glyph unicode="&#xe914;" glyph-name="download" d="M700.632 659.806c-39.885 0-72.219 32.334-72.219 72.219v0 225.011h4.312l294.804-294.804v-2.425zM927.528 623.966v-519.006c0-94.951-76.973-171.924-171.924-171.924v0h-488.286c-94.951 0-171.924 76.973-171.924 171.924v0 680.421c0.153 94.835 77.068 171.655 171.924 171.655 0 0 0 0 0 0h325.524v-225.011c0-59.53 48.259-107.789 107.789-107.789v0zM738.897 347.486h-139.587v166.535h-174.619v-166.535h-141.743l229.053-269.474z" />
<glyph unicode="&#xe915;" glyph-name="select" d="M700.632 659.806c-39.885 0-72.219 32.334-72.219 72.219v0 225.011h4.312l294.804-294.804v-2.425zM927.528 623.966v-519.006c0-94.951-76.973-171.924-171.924-171.924v0h-488.286c-94.951 0-171.924 76.973-171.924 171.924v0 680.421c0.153 94.835 77.068 171.655 171.924 171.655 0 0 0 0 0 0h325.524v-225.011c0-59.53 48.259-107.789 107.789-107.789v0zM722.728 426.712l-90.274 70.063-163.301-210.459-97.549 77.878-71.411-88.926 188.632-150.636z" />
<glyph unicode="&#xe916;" glyph-name="upload" d="M700.632 659.806c-39.885 0-72.219 32.334-72.219 72.219v0 225.011h4.312l294.804-294.804v-2.425zM927.528 623.966v-519.006c0-94.951-76.973-171.924-171.924-171.924v0h-488.286c-94.951 0-171.924 76.973-171.924 171.924v0 680.421c0.153 94.835 77.068 171.655 171.924 171.655 0 0 0 0 0 0h325.524v-225.011c0-59.53 48.259-107.789 107.789-107.789v0zM738.897 271.495l-229.053 269.474-229.053-269.474h141.743v-166.535h174.619v166.535z" />
<glyph unicode="&#xe917;" glyph-name="icon_plus" d="M512 960c-282.947 0-512-229.053-512-512s229.053-512 512-512 512 229.053 512 512-229.053 512-512 512zM781.474 388.716c0-13.474-10.779-24.253-24.253-24.253h-134.737c-13.474 0-24.253-10.779-24.253-24.253v-134.737c0-13.474-10.779-24.253-24.253-24.253h-91.621c-13.474 0-24.253 10.779-24.253 24.253v134.737c0 13.474-10.779 24.253-24.253 24.253h-134.737c-13.474 0-24.253 10.779-24.253 24.253v91.621c0 13.474 10.779 24.253 24.253 24.253h134.737c13.474 0 24.253 10.779 24.253 24.253v134.737c0 13.474 10.779 24.253 24.253 24.253h91.621c13.474 0 24.253-10.779 24.253-24.253v-134.737c0-13.474 10.779-24.253 24.253-24.253h134.737c13.474 0 24.253-10.779 24.253-24.253v-91.621z" />
<glyph unicode="&#xe918;" glyph-name="ico_file" horiz-adv-x="811" d="M643.413 960h-317.44v-224.853c0-59.733-47.36-108.373-105.387-108.373h-220.587v-518.827c0-94.72 75.093-171.947 167.253-171.947h476.16c92.16 0 167.253 76.8 167.253 171.947v680.107c0 95.147-75.093 171.947-167.253 171.947zM597.333 175.787c0-14.507-11.52-26.027-25.173-26.027h-333.227c-14.080 0-25.6 11.52-25.6 26.027v0c0 14.507 11.52 26.027 25.173 26.027h333.227c14.080 0 25.6-11.947 25.6-26.027v0zM571.733 290.56h-332.8c-14.080 0-25.6 11.52-25.6 26.027s11.52 26.027 25.173 26.027h333.227c14.080 0 25.173-11.52 25.173-26.027 0.427-14.507-11.093-26.027-25.173-26.027zM571.733 431.787h-332.8c-14.080 0-25.6 11.947-25.6 26.027s11.52 26.027 25.173 26.027h333.227c14.080 0 25.173-11.52 25.173-26.027s-11.093-26.027-25.173-26.027zM221.013 662.613c38.827 0 70.4 32.427 70.4 72.107v225.28h-4.267l-18.347-18.773-250.88-257.28-17.92-18.773v-2.56h221.013z" />
<glyph unicode="&#xe919;" glyph-name="ico_folder" horiz-adv-x="1536" d="M1521.28 576c-15.36 23.68-40.96 37.76-68.48 37.76h-838.4c-46.72 0-88.32-30.72-104.32-76.8l-117.12-345.6c-3.84-10.88-12.16-19.2-22.4-22.4s-21.76-1.28-30.72 5.12l-17.28 12.8c-15.36 10.88-21.76 30.72-15.36 48.64l118.4 352.64c24.32 69.76 88.32 117.12 159.36 117.12h521.6l-17.28 56.32c-14.72 48-57.6 80.64-105.6 80.64h-576c-34.56 0-65.92 21.12-80.64 53.76-17.28 39.040-54.4 64-95.36 64h-148.48c-26.88 0-51.84-13.44-67.2-35.84-16-23.040-20.48-52.48-12.16-78.72l252.16-835.84c13.44-43.52 53.12-73.6 97.92-73.6h898.56c43.52 0 82.56 28.16 97.28 69.76l181.12 489.6c9.6 26.88 5.76 56.96-9.6 80.64z" />
<glyph unicode="&#xe91a;" glyph-name="ico_search" d="M998.4 85.902l-163.84 163.84-124.018-124.018 163.84-163.84c16.498-16.498 38.684-25.6 62.009-25.6s45.511 9.102 62.009 25.6c16.498 16.498 25.6 38.684 25.6 62.009s-9.102 45.227-25.6 62.009zM791.893 244.338l-54.329 54.329c0 0.284 0 0.284 0.284 0.569 54.613 71.396 84.764 160.142 84.764 249.458 0 109.796-42.667 213.049-120.604 290.702-77.369 77.938-180.622 120.604-291.271 120.604-109.511 0-212.764-42.667-290.133-120.32-77.938-77.938-120.604-181.191-120.604-290.987s42.667-213.049 120.32-290.702c77.653-77.653 180.907-120.604 290.987-120.604h0.284c89.031 0 177.493 30.151 248.889 84.764 0.284 0 0.284 0.284 0.569 0.284l54.329-54.329 76.516 76.231zM607.289 352.711c-52.338-52.338-121.742-81.067-195.982-81.067-73.956 0-143.644 29.013-195.698 81.067-52.338 52.338-81.067 121.742-81.067 195.982 0 73.956 29.013 143.644 81.067 195.982 52.338 52.338 121.742 81.067 195.982 81.067 0 0 0 0 0 0 73.956-0.284 143.644-29.013 195.698-81.067 52.338-52.338 81.067-121.742 81.067-195.982-0.284-73.956-29.013-143.644-81.067-195.982z" />
<glyph unicode="&#xe91b;" glyph-name="icon_cancel" d="M873.095 809.095c199.411-199.411 199.411-525.474 0-724.884s-525.474-199.411-724.884 0-199.411 525.474 2.695 724.884 522.779 202.105 722.189 0zM724.884 315.958l-94.316 94.316c-10.779 10.779-10.779 26.947 0 35.032l94.316 94.316c10.779 10.779 10.779 26.947 0 35.032l-64.674 64.674c-10.779 10.779-26.947 10.779-35.032 0l-94.316-94.316c-10.779-10.779-26.947-10.779-35.032 0l-94.316 94.316c-10.779 10.779-26.947 10.779-35.032 0l-64.674-64.674c-10.779-10.779-10.779-26.947 0-35.032l94.316-94.316c10.779-10.779 10.779-26.947 0-35.032l-94.316-94.316c-10.779-10.779-10.779-26.947 0-35.032l64.674-64.674c10.779-10.779 26.947-10.779 35.032 0l94.316 94.316c10.779 10.779 26.947 10.779 35.032 0l94.316-94.316c10.779-10.779 26.947-10.779 35.032 0v0l64.674 64.674c10.779 10.779 10.779 24.253 0 35.032z" />
<glyph unicode="&#xe91c;" glyph-name="done" d="M784.091 623.961c0 0 0 0-0.001 0-32.23 0-62.972-6.372-91.034-17.926l1.592 0.58c-42.18 86.53-129.484 145.096-230.467 145.096-136.251 0-247.601-106.617-255.172-240.974l-0.030-0.671c-7.398 1.197-15.925 1.881-24.612 1.881-0.090 0-0.18 0-0.27 0h0.014c-98.978-3.44-177.909-84.506-177.909-184.007s78.931-180.566 177.595-183.998l0.314-0.009h599.98c132.729 0 240.327 107.598 240.327 240.327s-107.598 240.327-240.327 240.327v0zM491.52 226.9l-155.481 125.388 58.932 73.77 80.666-64.575 136.046 174.916 74.606-58.096z" />
<glyph unicode="&#xe91d;" glyph-name="error" d="M1010.257 145.651l-408.792 706.56c-18.158 31.149-51.406 51.75-89.465 51.75s-71.307-20.601-89.201-51.26l-0.264-0.49-408.792-706.56c-8.91-14.97-14.177-33.009-14.177-52.278 0-57.149 46.329-103.478 103.478-103.478 0.058 0 0.115 0 0.173 0h817.574c57.018 0.173 103.174 46.435 103.174 103.477 0 18.941-5.089 36.693-13.974 51.964l0.265-0.494zM512 107.116c-35.421 0-64.135 28.714-64.135 64.135s28.714 64.135 64.135 64.135c35.421 0 64.135-28.714 64.135-64.135v0c0-35.421-28.714-64.135-64.135-64.135v0zM551.343 311.916c0-21.729-17.615-39.343-39.343-39.343s-39.343 17.615-39.343 39.343v0l-24.792 289.415c0 35.421 28.714 64.135 64.135 64.135s64.135-28.714 64.135-64.135v0z" />
<glyph unicode="&#xe91e;" glyph-name="uploading" d="M963.907 38.131v0l-25.331 14.013-50.661 26.947c-91.904-88.545-217.1-143.091-355.035-143.091-0.046 0-0.092 0-0.139 0h0.007c-264.904 2.849-482.018 203.722-510.444 461.434l-0.209 2.33h177.314c24.285-164.114 164.172-288.624 333.14-288.624 70.144 0 135.276 21.457 189.19 58.166l-1.168-0.751-19.941 9.971-43.924 23.714 97.819 62.518 197.524 122.611 3.503-115.874zM73.027 508.901v0l296.691 183.781-43.924 24.792-20.48 11.048c52.747 35.958 117.879 57.415 188.022 57.415 168.968 0 308.855-124.51 332.916-286.786l0.224-1.838h175.427c-26.489 260.256-244.486 461.626-509.516 461.626-136.848 0-261.156-53.689-353.011-141.152l0.211 0.199-50.931 26.947-25.061 13.743 7.276-232.556z" />
</font>
</defs>
</svg>
